PathFileType	4	(X/Y/Z)	C:/Users/beibeiliu/ov580/test_trc/User3\sequence.13_training_dense_right.trc
DataRate	CameraRate	NumFrames	NumMarkers	Units	OrigDataRate	OrigDataStartFrame	OrigNumFrames
120	120	24	19	mm	120	209	278
Frame#	Time	ThumbCMC			ThumbMCP			ThumbIP			ThumbTip			IndexMCP			IndexPIP			IndexTip			MiddleMCP			MiddlePIP			MiddleTip			RingMCP			RingPIP			RingTip			PinkyMCP			PinkyPIP			PinkyTip			BackHand1			BackHand2			BackHand3	
		X0	Y0	Z0	X1	Y1	Z1	X2	Y2	Z2	X3	Y3	Z3	X4	Y4	Z4	X5	Y5	Z5	X6	Y6	Z6	X7	Y7	Z7	X8	Y8	Z8	X9	Y9	Z9	X10	Y10	Z10	X11	Y11	Z11	X12	Y12	Z12	X13	Y13	Z13	X14	Y14	Z14	X15	Y15	Z15	X16	Y16	Z16	X17	Y17	Z17	X18	Y18	Z18	
208	1.73333	201.445	-9.37681	0.991957	203.219	-0.0304195	-23.4481	205.526	6.31113	-53.1322	211.625	14.3256	-72.6935	162.321	-31.2428	-62.0203	155.942	-30.5415	-84.2594	145.659	-34.3509	-112.511	139.606	-50.462	-56.4605	125.058	-55.9296	-74.7002	109.999	-59.3614	-101.871	128.25	-56.1895	-35.2366	113.699	-62.082	-51.3743	94.9419	-71.62	-70.3371	111.72	-57.3617	-9.97767	95.2787	-63.234	-11.333	78.647	-72.4618	-21.521	159.644	-55.8307	0.908244	173.769	-59.4773	25.3754	186.06	-42.3252	-4.35741	
209	1.74167	203.448	-8.12182	1.74528	202.012	-0.170232	-24.8847	205.186	7.34414	-50.2555	210.799	16.0805	-71.8561	164.01	-30.8386	-60.3375	155.457	-31.5771	-86.1958	148.965	-34.3372	-107.827	141.036	-51.3773	-53.0896	126.725	-56.8808	-76.2123	114.264	-58.5429	-105.319	129.615	-58.2714	-36.4164	110.859	-68.0292	-55.5082	94.4471	-75.7754	-74.7636	114.293	-58.6233	-10.9529	94.6697	-66.5805	-18.0519	79.7171	-76.1632	-23.3462	156.831	-59.0277	1.05309	172.106	-59.2131	27.7291	185.761	-42.5019	-2.0604	
210	1.75	198.912	-9.28262	4.56787	198.26	0.268513	-25.11	201.732	10.0979	-51.7258	207.026	20.4507	-65.9797	164.847	-31.0932	-64.2052	158.026	-31.9698	-85.2549	153.09	-33.1074	-113.711	141.423	-54.0378	-57.9834	133.104	-55.7881	-81.208	118.167	-60.5312	-105.358	132.15	-59.6773	-35.5551	117.286	-67.4598	-57.6576	103.047	-75.8075	-76.7026	118.5	-59.8282	-8.69515	98.803	-68.1407	-18.6165	81.7042	-78.6855	-26.2676	162.184	-56.9148	-0.029591	177.473	-59.773	27.6523	190.365	-41.3993	-2.09322	
211	1.75833	199.554	-4.19689	1.50891	200.748	7.34944	-21.2451	202.546	17.2681	-49.7738	205.115	28.0456	-66.2993	164.768	-29.7848	-66.2828	160.194	-29.9236	-88.3691	154.242	-31.6256	-114.872	147.463	-52.3523	-57.269	134.968	-56.608	-79.6796	122.001	-62.2033	-107.428	133.836	-61.2797	-41.4481	119.656	-72.7894	-57.4438	105.31	-81.6252	-77.0231	118.834	-65.4688	-11.7066	105.103	-71.6366	-19.1672	85.0368	-87.631	-27.3769	163.6	-58.4455	-3.34811	175.867	-58.9054	27.7869	189.293	-41.1285	-4.13733	
212	1.76667	194.775	-0.0136642	0.646319	189.967	10.2999	-19.6955	194.723	24.8526	-47.3847	195.498	36.0115	-64.9222	165.71	-27.2038	-65.6835	160.145	-26.1093	-86.752	155.553	-28.5602	-114.263	148.363	-54.4347	-60.8597	140.02	-55.7095	-81.6753	126.669	-63.7109	-108.749	135.049	-66.9483	-41.6058	126.113	-73.9582	-61.8386	113.935	-84.8698	-81.1078	121.859	-71.0517	-14.0844	107.855	-81.6774	-22.9242	92.3403	-96.0647	-30.5408	167.18	-58.9036	-2.63151	179.043	-56.1335	22.6294	190.953	-35.5581	-4.24348	
213	1.775	188.556	3.59035	4.87531	184.72	16.932	-21.999	183.298	30.931	-46.4167	183.537	42.8903	-65.0178	164.891	-23.1889	-61.9061	159.438	-22.6585	-87.0868	155.103	-24.8506	-114.824	152.991	-51.5217	-58.2571	143.689	-57.3608	-83.816	129.936	-66.6922	-113.288	142.707	-64.1879	-45.0446	132.998	-74.5378	-61.5418	123.647	-85.8583	-87.0828	128.716	-72.5829	-16.0291	114.254	-86.8037	-24.4796	104.732	-99.8927	-36.1694	170.549	-57.8426	-0.488101	182.143	-55.8332	26.2894	192.661	-30.0607	-0.629119	
214	1.78333	184.435	8.37597	8.12224	176.621	18.7727	-14.7919	175.833	35.9308	-43.2705	173.747	48.7279	-56.6815	163.231	-20.684	-62.86	157.05	-21.831	-86.3684	153.408	-21.5502	-112.449	154.703	-48.2543	-60.5332	145.643	-57.0402	-81.6956	137.582	-61.6791	-113.558	146.422	-63.6699	-45.8713	138.936	-75.3815	-65.1727	131.374	-86.0714	-85.1367	132.491	-76.496	-16.6404	121.481	-89.7531	-30.3635	113.556	-105.159	-40.9812	169.424	-58.6032	-3.74792	182.383	-57.3325	23.9399	188.648	-28.4987	1.14993	
215	1.79167	177.867	10.195	9.35343	170.14	22.5098	-15.7449	166.224	37.4233	-37.6121	163.689	51.8551	-53.3634	161.096	-19.5206	-63.0974	157.172	-17.2833	-87.6875	152.347	-18.1737	-110.856	156.697	-44.5784	-63.0471	150.203	-52.2432	-83.779	141.63	-60.6947	-114.55	148.508	-64.5749	-44.7008	144.811	-71.8475	-68.8569	139.707	-80.7439	-87.481	138.63	-76.3531	-20.7767	129.94	-90.9872	-29.5174	126.306	-105.567	-41.8462	172.898	-53.2113	-2.32935	184.227	-51.6943	24.0856	189.232	-22.1451	-1.43724	
216	1.8	170.365	15.5798	13.2345	159.248	24.9429	-9.43544	151.466	38.8583	-35.1155	148.086	54.839	-49.4757	160.059	-10.9155	-59.6861	154.943	-10.1703	-84.1565	151.932	-12.1267	-108.933	159.976	-37.7697	-58.9144	153.058	-46.644	-88.1549	148.462	-47.3557	-116.329	155.908	-58.2449	-48.6675	152.568	-67.2281	-67.1555	149.459	-75.8613	-94.3172	146.331	-75.1473	-22.9245	140.719	-88.8136	-38.9942	138.628	-108.864	-50.8999	176.52	-48.1789	-5.8712	186.541	-49.5125	22.0317	185.516	-17.5018	4.81958	
217	1.80833	160.123	15.7407	19.2707	147.915	28.7102	-2.81208	136.511	42.2559	-29.3028	127.51	51.3714	-39.9992	157.69	-2.41842	-56.9029	152.245	-0.192826	-82.0131	150.262	-1.68777	-106.98	162.975	-33.9743	-61.8925	159.172	-38.3653	-86.7676	154.845	-41.1865	-118.777	163.155	-53.2987	-49.6254	162.196	-62.9834	-70.436	161.835	-66.9945	-95.1763	158.065	-73.2287	-25.3371	155.824	-85.9891	-40.9835	158.663	-97.6039	-57.8117	179.241	-43.5267	-1.93217	190.688	-42.7303	21.7299	182.27	-10.3621	5.15101	
218	1.81667	149.634	14.209	23.6612	133.07	24.6862	0.548895	118.551	38.5319	-22.8197	107.74	49.1983	-31.859	152.069	2.01631	-53.4992	146.55	5.50201	-78.932	148.033	4.91219	-104.331	165.8	-22.6276	-59.4888	164.705	-28.5828	-86.8678	162.747	-29.3829	-117.618	170.49	-45.5989	-50.6408	173.259	-52.8123	-68.6686	173.348	-56.8564	-95.2615	170.737	-63.4683	-28.3356	173.511	-77.9889	-42.1929	177.172	-86.8666	-66.6677	186.258	-33.1103	-0.630354	194.257	-29.9559	24.984	179.047	-4.69831	7.7076	
219	1.825	139.384	8.26381	28.5349	119.865	20.0606	7.56106	103.796	30.6558	-15.9091	89.5584	37.9135	-25.71	148.572	2.33232	-49.6279	143.228	7.83703	-76.7234	143.344	13.0386	-97.1178	168.495	-14.4251	-58.6352	167.437	-16.2674	-82.7136	166.271	-13.9082	-112.94	178.576	-37.1756	-49.873	179.608	-37.9717	-70.9795	183.153	-39.0195	-97.1639	182.658	-54.6123	-32.7744	186.07	-63.1776	-46.7668	194.342	-71.856	-67.0443	186.972	-25.8751	-0.128145	192.725	-21.9839	27.1777	170.454	2.32635	14.9264	
220	1.83333	131.067	5.34541	31.5458	112.461	10.1546	8.47074	91.5474	19.613	-9.30122	76.4724	25.9932	-23.6502	140.964	10.0254	-48.2657	135.644	15.9084	-73.0703	134.359	23.6356	-93.9106	169.185	-5.54071	-56.6791	166.163	-1.28473	-83.4702	168.669	-0.362235	-110.774	180.714	-23.7427	-44.9977	186.211	-24.7714	-70.2643	188.764	-21.6188	-95.8155	189.365	-43.8651	-33.0387	200.688	-51.6656	-51.7447	206.446	-51.6136	-69.037	188.456	-18.5135	0.867065	190.914	-15.8606	31.8328	164.473	4.20425	12.5245	
221	1.84167	126.289	-2.09436	31.4929	104.877	2.48933	14.3909	86.6713	7.98928	-4.79921	68.6636	13.7619	-20.408	138.975	11.1802	-46.247	132.894	16.7776	-66.5501	126.796	28.445	-87.6749	166.72	1.63577	-51.5791	162.417	9.63205	-80.4289	165.26	14.4837	-107.77	182.753	-15.2717	-43.7381	188.793	-10.6315	-70.3065	190.16	-4.4783	-92.6847	197.956	-35.9165	-30.7562	202.475	-36.6858	-49.4917	216.327	-38.0783	-66.5852	186.887	-9.43289	4.91894	188.198	-10.4508	33.6787	161.082	6.37048	18.901	
222	1.85	123.48	-7.4131	31.0671	104.987	-5.02333	15.419	80.375	3.47321	-5.56157	64.4584	3.96801	-14.9414	133.333	12.4815	-44.2255	127.94	19.9962	-66.8012	121.367	29.5615	-83.5021	162.292	8.47635	-48.2962	160.508	17.0016	-76.9762	160.711	24.7518	-102.544	181.92	-4.65892	-45.8772	187.757	-0.629601	-66.5058	193.132	8.11561	-92.2895	200.427	-25.15	-34.0043	207.402	-24.8386	-51.5717	215.885	-20.7948	-65.3972	186.346	-5.01297	5.11342	186.842	-6.81811	31.4041	153.666	6.6436	18.274	
223	1.85833	124.548	-12.6525	31.6163	101.631	-7.93869	11.5191	83.2146	-5.77813	-3.50727	60.5417	-0.888749	-18.8102	129.988	12.7121	-40.5248	120.539	21.4938	-61.29	118.537	31.3463	-84.8371	159.647	14.0852	-49.2735	161.088	21.9341	-75.6132	160.08	30.2779	-99.6898	183.561	1.70579	-44.6772	185.728	8.63761	-65.1793	193.21	17.7533	-88.4928	197.334	-19.0861	-27.4562	208.103	-15.351	-49.8641	222.4	-11.6245	-65.9307	181.151	0.505117	7.30979	184.894	-1.65028	34.0362	151.956	7.56128	23.6143	
224	1.86667	121.616	-13.1239	32.7448	104.114	-12.1971	9.24321	83.5775	-9.98128	-7.78625	63.5527	-9.0364	-19.3508	130.328	13.3403	-41.3424	121.58	20.1991	-62.575	115.553	31.7456	-84.8297	158.463	17.0016	-46.3786	162.024	25.2322	-73.7139	158.883	36.1549	-98.4126	183.079	3.45178	-37.9944	187.845	13.9192	-62.5172	190.866	23.7348	-86.2205	200.041	-12.2639	-28.6664	208.313	-8.64065	-46.9553	221.214	-3.57869	-60.6965	182.285	2.20089	5.55996	184.283	-2.57035	35.0608	152.27	7.58176	24.0448	
225	1.875	121.131	-14.599	30.3613	102.789	-17.0156	10.9095	83.6291	-14.7199	-11.66	66.1992	-16.1788	-24.2881	132.501	13.2511	-41.6898	118.686	19.6637	-63.8912	118.517	27.4544	-85.3349	159.434	16.8749	-47.7405	156.769	25.6654	-72.5065	158.146	35.9868	-96.7671	184.112	7.45243	-41.9892	184.041	14.2823	-61.28	195.237	23.6581	-82.8547	199.366	-8.10203	-29.935	213.952	-8.31543	-43.6294	225.041	1.07614	-62.6237	178.15	3.07965	5.77419	185.762	-1.00536	35.9316	149.721	8.01165	25.51	
226	1.88333	124.317	-17.6898	31.8473	101.564	-19.7693	5.30896	85.0258	-22.0908	-13.5825	68.0237	-24.0664	-30.6017	130.37	10.1888	-40.1181	124.549	15.3629	-66.2833	120.774	21.5426	-86.8537	162.742	16.1404	-50.3031	157.295	23.9081	-74.4013	160.147	32.7473	-100.48	182.767	7.59144	-43.42	186.761	12.5011	-61.388	191.968	19.9722	-85.2501	200.886	-9.94166	-26.1479	211.193	-7.67067	-45.1932	223.976	-1.10761	-60.1492	182.829	6.14701	6.17821	181.733	0.323048	38.4583	148.82	6.49642	23.2522	
227	1.89167	125.14	-18.1071	30.388	102.725	-24.4651	5.65577	90.5865	-28.092	-20.2531	79.5219	-33.3973	-35.7061	134.521	9.98713	-46.5558	125.045	12.2074	-71.8117	121.705	14.8602	-92.695	163.313	14.339	-51.0497	158.396	19.0215	-76.0506	160.042	24.1853	-103.8	182.573	5.71349	-44.4004	184.984	10.1965	-66.0134	193.411	12.6121	-93.7873	201.796	-9.6879	-29.257	212.795	-9.25877	-49.7155	225.326	-8.78677	-66.8161	182.038	5.32545	6.99618	182.635	1.54177	39.1761	152.577	7.19244	25.4011	
228	1.9	121.087	-17.4048	26.4314	104.936	-26.4309	5.16688	96.7503	-31.8704	-23.4094	86.9719	-39.4815	-43.6059	137.204	8.3709	-43.7556	128.888	10.3773	-67.889	121.286	10.3426	-96.2827	165.023	10.7294	-47.9155	160.803	12.7774	-76.7558	157.225	11.7627	-108.681	180.905	2.37681	-40.9001	187.239	3.16724	-70.6906	187.674	-3.16311	-98.7707	204.553	-13.16	-27.2054	210.504	-13.3307	-47.4388	216.448	-15.8606	-73.0023	182.18	5.1806	10.5418	183.173	1.58919	38.6448	149.206	9.21175	22.2078	
229	1.90833	123.991	-18.6127	28.9698	110.48	-29.1929	4.61744	101.027	-35.4283	-24.7935	98.072	-44.6223	-44.9566	139.398	10.5326	-42.9639	132.926	11.0359	-68.7556	129.828	6.20535	-98.7194	161.783	10.6874	-46.9236	162.385	7.58828	-82.0123	156.514	-9.25392	-109.747	181.106	2.91548	-44.6719	183.869	-3.22346	-72.9076	183.026	-20.1868	-93.0693	203.769	-13.0036	-31.5614	204.05	-17.364	-55.3373	205.752	-31.0387	-76.8247	186.512	3.23793	7.05158	185.47	-0.233476	41.3439	152.054	9.28399	24.8745	
230	1.91667	130.289	-18.0704	25.2869	115.646	-29.6524	-1.92369	108.445	-37.8816	-27.9112	112.999	-45.7436	-53.0418	141.363	12.4475	-42.4784	138.206	11.5846	-68.5589	131.726	6.03388	-94.9374	167.813	10.2652	-47.5951	161.046	2.31968	-82.451	153.36	-25.545	-98.1967	181.092	0.7956	-42.364	182.812	-11.2441	-73.3966	172.717	-39.5761	-83.5736	200.678	-13.6315	-32.8226	201.965	-22.5931	-57.4192	194.827	-40.3632	-70.1617	189.542	1.15708	11.1316	191.322	-2.38886	41.0499	154.25	7.40254	25.742	
231	1.925	127.495	-18.4686	26.0051	115.157	-29.5346	-4.78147	110.067	-37.6451	-31.4032	123.443	-45.2634	-54.5959	140.916	14.748	-42.4311	136.029	14.6974	-73.9692	135.597	6.55816	-98.6318	168.367	8.13802	-50.685	159.964	-7.41628	-81.5701	152.925	-41.1214	-80.2053	180.918	-0.8953	-44.8465	179.426	-15.485	-71.0164	171.647	-47.281	-67.0226	202.545	-13.9964	-32.0811	197.147	-26.5339	-58.7166	182.709	-47.4093	-64.3346	188.461	2.46717	9.24437	191.711	-0.922049	36.6109	158.886	8.38298	22.9702	
